<svg width="64" height="64" viewBox="0 0 64 64" fill="none" xmlns="http://www.w3.org/2000/svg">
<rect width="64" height="64" rx="32" fill="#2B1E50"/>
<path fill-rule="evenodd" clip-rule="evenodd" d="M34.1809 16.8787C33.0094 15.7071 31.1099 15.7071 29.9383 16.8787L22.665 24.152C21.7783 25.0386 21.7783 26.4761 22.665 27.3627C23.5516 28.2493 24.989 28.2493 25.8756 27.3627L29.649 23.5893C30.8205 22.4178 32.72 22.4178 33.8916 23.5893L37.0203 26.718C37.9868 27.6845 39.5538 27.6845 40.5203 26.718C41.4868 25.7515 41.4868 24.1845 40.5203 23.218L34.1809 16.8787Z" fill="white"/>
<path fill-rule="evenodd" clip-rule="evenodd" d="M29.8191 47.8596C30.9906 49.0312 32.8901 49.0312 34.0617 47.8596L41.335 40.5863C42.2217 39.6997 42.2217 38.2622 41.335 37.3756C40.4484 36.489 39.011 36.489 38.1244 37.3756L34.351 41.149C33.1795 42.3205 31.28 42.3205 30.1084 41.149L26.9797 38.0203C26.0132 37.0538 24.4462 37.0538 23.4797 38.0203C22.5132 38.9868 22.5132 40.5538 23.4797 41.5203L29.8191 47.8596Z" fill="white"/>
</svg>
